<?xml version="1.0" standalone="no"?>
<!DOCTYPE svg PUBLIC "-//W3C//DTD SVG 20010904//EN"
 "http://www.w3.org/TR/2001/REC-SVG-20010904/DTD/svg10.dtd">
<svg version="1.0" xmlns="http://www.w3.org/2000/svg"
 width="640.000000pt" height="640.000000pt" viewBox="0 0 640.000000 640.000000"
 preserveAspectRatio="xMidYMid meet">

<g transform="translate(0.000000,640.000000) scale(0.100000,-0.100000)"
fill="#000000" stroke="none">
<path d="M2815 3829 c-72 -68 -139 -185 -153 -269 -7 -38 -11 -44 -27 -40 -11
3 -207 5 -435 5 l-415 0 -50 -24 c-252 -125 -249 -479 5 -600 55 -26 55 -26
358 -29 222 -2 307 0 318 9 10 8 14 37 14 110 l0 98 -301 3 -301 3 -29 33
c-43 47 -41 102 5 148 l34 34 360 0 c210 0 371 -4 386 -10 14 -5 35 -24 46
-42 18 -29 20 -51 20 -198 0 -116 4 -170 12 -178 8 -8 47 -12 109 -12 l98 0 3
328 3 327 28 57 c16 32 48 75 73 97 l45 40 -51 85 c-36 59 -58 86 -70 86 -11
0 -49 -28 -85 -61z"/>
<path d="M3938 3854 c-55 -46 -115 -125 -143 -189 -33 -73 -45 -143 -45 -255
l0 -100 406 0 406 0 34 -34 c46 -46 48 -101 5 -148 l-29 -33 -492 0 -492 0
-29 33 -29 32 0 174 c0 136 -3 176 -14 185 -9 8 -48 11 -112 9 l-99 -3 -2
-322 c-2 -298 -3 -326 -22 -368 -25 -58 -64 -108 -96 -125 -14 -7 -25 -18 -25
-24 1 -6 22 -47 49 -91 32 -54 54 -81 69 -83 15 -2 41 17 90 65 74 74 122 157
142 246 l12 52 542 0 541 0 57 28 c73 36 151 120 173 188 24 72 18 188 -15
254 -31 63 -91 124 -155 155 -49 25 -53 25 -355 28 -168 1 -311 5 -318 7 -20
7 34 100 85 145 l43 38 -46 78 c-65 110 -70 112 -136 58z"/>
<path d="M3024 3437 c-35 -35 -64 -71 -64 -81 0 -9 32 -49 71 -88 l70 -71 70
69 c42 42 69 77 69 90 0 22 -118 144 -140 144 -6 0 -40 -28 -76 -63z"/>
<path d="M3027 3122 c-37 -37 -67 -74 -67 -83 0 -19 121 -139 141 -139 20 0
139 121 139 142 0 14 -126 148 -140 148 -3 0 -36 -30 -73 -68z"/>
</g>
</svg>
