<?xml version="1.0" standalone="no"?>
<!DOCTYPE svg PUBLIC "-//W3C//DTD SVG 20010904//EN"
 "http://www.w3.org/TR/2001/REC-SVG-20010904/DTD/svg10.dtd">
<svg version="1.0" xmlns="http://www.w3.org/2000/svg"
 width="1280.000000pt" height="1265.000000pt" viewBox="0 0 1280.000000 1265.000000"
 preserveAspectRatio="xMidYMid meet">

<g transform="translate(0.000000,1265.000000) scale(0.100000,-0.100000)"
fill="#000000" stroke="none">
<path d="M3667 9713 c-4 -3 -7 -638 -7 -1410 l0 -1403 305 0 305 0 2 1133 3
1132 275 0 275 0 3 -1147 2 -1148 895 0 895 0 0 1130 0 1130 269 0 c148 0 276
-3 285 -6 14 -6 16 -116 16 -1145 l0 -1139 960 0 960 0 0 270 0 270 -660 0
-660 0 0 300 0 300 660 0 660 0 0 275 0 275 -660 0 -660 0 0 300 0 300 685 0
685 0 0 270 0 270 -1570 0 -1570 0 0 -1120 0 -1120 -295 0 -295 0 0 1145 0
1145 -878 0 c-483 0 -882 -3 -885 -7z"/>
<path d="M3640 4785 l0 -1835 405 0 405 0 0 1180 0 1181 -127 -3 -128 -3 -3
-1007 -2 -1008 -145 0 -145 0 0 1495 0 1495 155 0 155 0 0 -330 0 -330 650 0
650 0 0 480 0 480 -130 0 -130 0 -2 -312 -3 -313 -385 0 -385 0 -3 316 c-2
237 -5 319 -15 327 -7 5 -178 12 -414 16 l-403 6 0 -1835z"/>
<path d="M4740 6415 l0 -175 130 0 130 0 0 175 0 175 -130 0 -130 0 0 -175z"/>
<path d="M5730 4925 l0 -1645 -130 0 -130 0 0 360 0 360 -130 0 -130 0 0 -360
0 -360 -120 0 -120 0 -2 843 -3 842 -125 0 -125 0 -3 -1007 -2 -1008 1430 0
1430 0 -2 163 -3 162 -787 3 -788 2 0 140 0 140 780 0 780 0 0 850 0 850 -130
0 -130 0 0 -345 0 -345 -140 0 -140 0 0 340 0 340 -130 0 -130 0 0 -340 0
-340 -130 0 -130 0 0 345 0 345 -130 0 -130 0 2 -512 3 -513 528 -3 527 -2 0
-175 0 -175 -650 0 -650 0 0 1175 0 1175 1570 0 1570 0 0 170 0 170 -1700 0
-1700 0 0 -1645z"/>
<path d="M6260 5740 l0 -180 130 0 130 0 -2 178 -3 177 -127 3 -128 3 0 -181z"/>
<path d="M6762 5728 l3 -173 128 -3 127 -3 0 176 0 175 -130 0 -130 0 2 -172z"/>
<path d="M7280 5725 l0 -175 125 0 125 0 0 175 0 175 -125 0 -125 0 0 -175z"/>
<path d="M7820 5395 l0 -485 525 0 525 0 0 -815 0 -815 -140 0 -140 0 0 645 0
645 -385 0 -385 0 0 -515 0 -515 258 -2 257 -3 3 -127 3 -128 -266 0 -265 0 0
-165 0 -165 660 0 660 0 -2 1143 -3 1142 -522 3 -523 2 0 155 0 155 520 0 520
0 0 165 0 165 -650 0 -650 0 0 -485z m518 -1330 c1 -82 1 -154 -1 -160 -3 -6
-48 -8 -131 -5 l-127 5 0 145 c0 80 0 151 0 158 1 10 30 12 129 10 l127 -3 3
-150z"/>
<path d="M5225 5287 c-3 -7 -4 -87 -3 -177 l3 -165 128 -3 127 -3 -2 178 -3
178 -123 3 c-94 2 -124 0 -127 -11z"/>
<path d="M5225 4638 c-3 -8 -4 -88 -3 -178 l3 -165 128 -3 127 -3 -2 178 -3
178 -123 3 c-96 3 -123 0 -127 -10z"/>
</g>
</svg>
